<svg xmlns="http://www.w3.org/2000/svg" x="0px" y="0px"
width="48" height="48"
viewBox="0 0 172 172"
style=" fill:#000000;"><g transform=""><g fill="none" fill-rule="nonzero" stroke="none" stroke-width="1" stroke-linecap="butt" stroke-linejoin="miter" stroke-miterlimit="10" stroke-dasharray="" stroke-dashoffset="0" font-family="none" font-weight="none" font-size="none" text-anchor="none" style="mix-blend-mode: normal"><path d="M0,172v-172h172v172z" fill="#ffffff"></path><g><path d="M86,17.91667c-37.60139,0 -68.08333,30.48195 -68.08333,68.08333c0,37.60139 30.48195,68.08333 68.08333,68.08333c37.60139,0 68.08333,-30.48195 68.08333,-68.08333c0,-37.60139 -30.48195,-68.08333 -68.08333,-68.08333z" fill="#ff0066"></path><path d="M95.21633,104.04567h17.61925l2.76633,-17.89875h-20.38917v-9.7825c0,-7.43542 2.4295,-14.02875 9.38475,-14.02875h11.17642v-15.61975c-1.96367,-0.26517 -6.11675,-0.84567 -13.96425,-0.84567c-16.38658,0 -25.9935,8.65375 -25.9935,28.36925v11.90742h-16.84525v17.89875h16.84525v49.19558c3.33608,0.50167 6.71517,0.84208 10.18383,0.84208c3.13542,0 6.19558,-0.28667 9.21633,-0.69517z" fill="#ffffff"></path></g><path d="M0,172v-172h172v172z" fill="none"></path><path d="M3.44,168.56v-165.12h165.12v165.12z" fill="none"></path><path d="M86,172c-47.49649,0 -86,-38.50351 -86,-86v0c0,-47.49649 38.50351,-86 86,-86v0c47.49649,0 86,38.50351 86,86v0c0,47.49649 -38.50351,86 -86,86z" fill="none"></path><path d="M86,168.56c-45.59663,0 -82.56,-36.96337 -82.56,-82.56v0c0,-45.59663 36.96337,-82.56 82.56,-82.56v0c45.59663,0 82.56,36.96337 82.56,82.56v0c0,45.59663 -36.96337,82.56 -82.56,82.56z" fill="none"></path><path d="M0,172v-172h172v172z" fill="none"></path><path d="M3.44,168.56v-165.12h165.12v165.12z" fill="none"></path><path d="M0,172v-172h172v172z" fill="none"></path><path d="M3.44,168.56v-165.12h165.12v165.12z" fill="none"></path><path d="M0,172v-172h172v172z" fill="none"></path><path d="M3.44,168.56v-165.12h165.12v165.12z" fill="none"></path><path d="M0,172v-172h172v172z" fill="none"></path><path d="M3.44,168.56v-165.12h165.12v165.12z" fill="none"></path><path d="M0,172v-172h172v172z" fill="none"></path><path d="M3.44,168.56v-165.12h165.12v165.12z" fill="none"></path><path d="M0,172v-172h172v172z" fill="none"></path><path d="M3.44,168.56v-165.12h165.12v165.12z" fill="none"></path><path d="M0,172v-172h172v172z" fill="none"></path><path d="M3.44,168.56v-165.12h165.12v165.12z" fill="none"></path><path d="M0,172v-172h172v172z" fill="none"></path><path d="M3.44,168.56v-165.12h165.12v165.12z" fill="none"></path><path d="M0,172v-172h172v172z" fill="none"></path><path d="M3.44,168.56v-165.12h165.12v165.12z" fill="none"></path><path d="M0,172v-172h172v172z" fill="none"></path><path d="M3.44,168.56v-165.12h165.12v165.12z" fill="none"></path><path d="M0,172v-172h172v172z" fill="none"></path><path d="M3.44,168.56v-165.12h165.12v165.12z" fill="none"></path><path d="M0,172v-172h172v172z" fill="none"></path><path d="M3.44,168.56v-165.12h165.12v165.12z" fill="none"></path><path d="M0,172v-172h172v172z" fill="none"></path><path d="M3.44,168.56v-165.12h165.12v165.12z" fill="none"></path><path d="M0,172v-172h172v172z" fill="none"></path><path d="M3.44,168.56v-165.12h165.12v165.12z" fill="none"></path><path d="M0,172v-172h172v172z" fill="none"></path><path d="M3.44,168.56v-165.12h165.12v165.12z" fill="none"></path><path d="M0,172v-172h172v172z" fill="none"></path><path d="M3.44,168.56v-165.12h165.12v165.12z" fill="none"></path><path d="M0,172v-172h172v172z" fill="none"></path><path d="M3.44,168.56v-165.12h165.12v165.12z" fill="none"></path><path d="M0,172v-172h172v172z" fill="none"></path><path d="M3.44,168.56v-165.12h165.12v165.12z" fill="none"></path><path d="M0,172v-172h172v172z" fill="none"></path><path d="M3.44,168.56v-165.12h165.12v165.12z" fill="none"></path><path d="M0,172v-172h172v172z" fill="none"></path><path d="M3.44,168.56v-165.12h165.12v165.12z" fill="none"></path><path d="M0,172v-172h172v172z" fill="none"></path><path d="M3.44,168.56v-165.12h165.12v165.12z" fill="none"></path><path d="M0,172v-172h172v172z" fill="none"></path><path d="M3.44,168.56v-165.12h165.12v165.12z" fill="none"></path><path d="M0,172v-172h172v172z" fill="none"></path><path d="M3.44,168.56v-165.12h165.12v165.12z" fill="none"></path><path d="M0,172v-172h172v172z" fill="none"></path><path d="M3.44,168.56v-165.12h165.12v165.12z" fill="none"></path><path d="M0,172v-172h172v172z" fill="none"></path><path d="M3.44,168.56v-165.12h165.12v165.12z" fill="none"></path><path d="M0,172v-172h172v172z" fill="none"></path><path d="M3.44,168.56v-165.12h165.12v165.12z" fill="none"></path><path d="M0,172v-172h172v172z" fill="none"></path><path d="M3.44,168.56v-165.12h165.12v165.12z" fill="none"></path><path d="M0,172v-172h172v172z" fill="none"></path><path d="M3.44,168.56v-165.12h165.12v165.12z" fill="none"></path><path d="M0,172v-172h172v172z" fill="none"></path><path d="M3.44,168.56v-165.12h165.12v165.12z" fill="none"></path><path d="M0,172v-172h172v172z" fill="none"></path><path d="M3.44,168.56v-165.12h165.12v165.12z" fill="none"></path><path d="M0,172v-172h172v172z" fill="none"></path><path d="M3.44,168.56v-165.12h165.12v165.12z" fill="none"></path><path d="M0,172v-172h172v172z" fill="none"></path><path d="M3.44,168.56v-165.12h165.12v165.12z" fill="none"></path><path d="M0,172v-172h172v172z" fill="none"></path><path d="M3.44,168.56v-165.12h165.12v165.12z" fill="none"></path><path d="M0,172v-172h172v172z" fill="none"></path><path d="M3.44,168.56v-165.12h165.12v165.12z" fill="none"></path><path d="M0,172v-172h172v172z" fill="none"></path><path d="M3.44,168.56v-165.12h165.12v165.12z" fill="none"></path><path d="M0,172v-172h172v172z" fill="none"></path><path d="M3.44,168.56v-165.12h165.12v165.12z" fill="none"></path><path d="M0,172v-172h172v172z" fill="none"></path><path d="M3.44,168.56v-165.12h165.12v165.12z" fill="none"></path><path d="M0,172v-172h172v172z" fill="none"></path><path d="M3.44,168.56v-165.12h165.12v165.12z" fill="none"></path><path d="M0,172v-172h172v172z" fill="none"></path><path d="M3.44,168.56v-165.12h165.12v165.12z" fill="none"></path><path d="M0,172v-172h172v172z" fill="none"></path><path d="M3.44,168.56v-165.12h165.12v165.12z" fill="none"></path><path d="M0,172v-172h172v172z" fill="none"></path><path d="M3.44,168.56v-165.12h165.12v165.12z" fill="none"></path><path d="M0,172v-172h172v172z" fill="none"></path><path d="M3.44,168.56v-165.12h165.12v165.12z" fill="none"></path><path d="M0,172v-172h172v172z" fill="none"></path><path d="M6.88,165.12v-158.24h158.24v158.24z" fill="none"></path><path d="M0,172v-172h172v172z" fill="none"></path><path d="M13.76,158.24v-144.48h144.48v144.48z" fill="none"></path><path d="M0,172v-172h172v172z" fill="none"></path><path d="M24.08,147.92v-123.84h123.84v123.84z" fill="none"></path><path d="M0,172v-172h172v172z" fill="none"></path><path d="M27.52,144.48v-116.96h116.96v116.96z" fill="none"></path><path d="M0,172v-172h172v172z" fill="none"></path><path d="M30.96,141.04v-110.08h110.08v110.08z" fill="none"></path><path d="M0,172v-172h172v172z" fill="none"></path><path d="M27.52,144.48v-116.96h116.96v116.96z" fill="none"></path><path d="M0,172v-172h172v172z" fill="none"></path><path d="M20.64,151.36v-130.72h130.72v130.72z" fill="none"></path><path d="M0,172v-172h172v172z" fill="none"></path><path d="M10.32,161.68v-151.36h151.36v151.36z" fill="none"></path><path d="M0,172v-172h172v172z" fill="none"></path><path d="M6.88,165.12v-158.24h158.24v158.24z" fill="none"></path><path d="M0,172v-172h172v172z" fill="none"></path><path d="M3.44,168.56v-165.12h165.12v165.12z" fill="none"></path><path d="M4.3,172c-2.37482,0 -4.3,-1.92518 -4.3,-4.3v-163.4c0,-2.37482 1.92518,-4.3 4.3,-4.3h163.4c2.37482,0 4.3,1.92518 4.3,4.3v163.4c0,2.37482 -1.92518,4.3 -4.3,4.3z" fill="none"></path><path d="M7.74,168.56c-2.37482,0 -4.3,-1.92518 -4.3,-4.3v-156.52c0,-2.37482 1.92518,-4.3 4.3,-4.3h156.52c2.37482,0 4.3,1.92518 4.3,4.3v156.52c0,2.37482 -1.92518,4.3 -4.3,4.3z" fill="none"></path><path d="M30.1,172c-16.62377,0 -30.1,-13.47623 -30.1,-30.1v-111.8c0,-16.62377 13.47623,-30.1 30.1,-30.1h111.8c16.62377,0 30.1,13.47623 30.1,30.1v111.8c0,16.62377 -13.47623,30.1 -30.1,30.1z" fill="none"></path><path d="M33.54,168.56c-16.62377,0 -30.1,-13.47623 -30.1,-30.1v-104.92c0,-16.62377 13.47623,-30.1 30.1,-30.1h104.92c16.62377,0 30.1,13.47623 30.1,30.1v104.92c0,16.62377 -13.47623,30.1 -30.1,30.1z" fill="none"></path><path d="M35.26,172c-19.47356,0 -35.26,-15.78644 -35.26,-35.26v-101.48c0,-19.47356 15.78644,-35.26 35.26,-35.26h101.48c19.47356,0 35.26,15.78644 35.26,35.26v101.48c0,19.47356 -15.78644,35.26 -35.26,35.26z" fill="none"></path><path d="M38.7,168.56c-19.47356,0 -35.26,-15.78644 -35.26,-35.26v-94.6c0,-19.47356 15.78644,-35.26 35.26,-35.26h94.6c19.47356,0 35.26,15.78644 35.26,35.26v94.6c0,19.47356 -15.78644,35.26 -35.26,35.26z" fill="none"></path><path d="M40.42,172c-22.32335,0 -40.42,-18.09665 -40.42,-40.42v-91.16c0,-22.32335 18.09665,-40.42 40.42,-40.42h91.16c22.32335,0 40.42,18.09665 40.42,40.42v91.16c0,22.32335 -18.09665,40.42 -40.42,40.42z" fill="none"></path><path d="M43.86,168.56c-22.32335,0 -40.42,-18.09665 -40.42,-40.42v-84.28c0,-22.32335 18.09665,-40.42 40.42,-40.42h84.28c22.32335,0 40.42,18.09665 40.42,40.42v84.28c0,22.32335 -18.09665,40.42 -40.42,40.42z" fill="none"></path><path d="M55.04,172c-30.39775,0 -55.04,-24.64225 -55.04,-55.04v-61.92c0,-30.39775 24.64225,-55.04 55.04,-55.04h61.92c30.39775,0 55.04,24.64225 55.04,55.04v61.92c0,30.39775 -24.64225,55.04 -55.04,55.04z" fill="none"></path><path d="M58.48,168.56c-30.39775,0 -55.04,-24.64225 -55.04,-55.04v-55.04c0,-30.39775 24.64225,-55.04 55.04,-55.04h55.04c30.39775,0 55.04,24.64225 55.04,55.04v55.04c0,30.39775 -24.64225,55.04 -55.04,55.04z" fill="none"></path><path d="M62.78,172c-34.67244,0 -62.78,-28.10756 -62.78,-62.78v-46.44c0,-34.67244 28.10756,-62.78 62.78,-62.78h46.44c34.67244,0 62.78,28.10756 62.78,62.78v46.44c0,34.67244 -28.10756,62.78 -62.78,62.78z" fill="none"></path><path d="M66.22,168.56c-34.67244,0 -62.78,-28.10756 -62.78,-62.78v-39.56c0,-34.67244 28.10756,-62.78 62.78,-62.78h39.56c34.67244,0 62.78,28.10756 62.78,62.78v39.56c0,34.67244 -28.10756,62.78 -62.78,62.78z" fill="none"></path><path d="M73.96,172c-40.84698,0 -73.96,-33.11302 -73.96,-73.96v-24.08c0,-40.84698 33.11302,-73.96 73.96,-73.96h24.08c40.84698,0 73.96,33.11302 73.96,73.96v24.08c0,40.84698 -33.11302,73.96 -73.96,73.96z" fill="none"></path><path d="M77.4,168.56c-40.84698,0 -73.96,-33.11302 -73.96,-73.96v-17.2c0,-40.84698 33.11302,-73.96 73.96,-73.96h17.2c40.84698,0 73.96,33.11302 73.96,73.96v17.2c0,40.84698 -33.11302,73.96 -73.96,73.96z" fill="none"></path><path d="M86,172c-47.49649,0 -86,-38.50351 -86,-86v0c0,-47.49649 38.50351,-86 86,-86v0c47.49649,0 86,38.50351 86,86v0c0,47.49649 -38.50351,86 -86,86z" fill="none"></path><path d="M86,168.56c-45.59663,0 -82.56,-36.96337 -82.56,-82.56v0c0,-45.59663 36.96337,-82.56 82.56,-82.56v0c45.59663,0 82.56,36.96337 82.56,82.56v0c0,45.59663 -36.96337,82.56 -82.56,82.56z" fill="none"></path><path d="M81.7,172c-45.12166,0 -81.7,-36.57834 -81.7,-81.7v-8.6c0,-45.12166 36.57834,-81.7 81.7,-81.7h8.6c45.12166,0 81.7,36.57834 81.7,81.7v8.6c0,45.12166 -36.57834,81.7 -81.7,81.7z" fill="none"></path><path d="M85.14,168.56c-45.12166,0 -81.7,-36.57834 -81.7,-81.7v-1.72c0,-45.12166 36.57834,-81.7 81.7,-81.7h1.72c45.12166,0 81.7,36.57834 81.7,81.7v1.72c0,45.12166 -36.57834,81.7 -81.7,81.7z" fill="none"></path><path d="M62.78,172c-34.67244,0 -62.78,-28.10756 -62.78,-62.78v-46.44c0,-34.67244 28.10756,-62.78 62.78,-62.78h46.44c34.67244,0 62.78,28.10756 62.78,62.78v46.44c0,34.67244 -28.10756,62.78 -62.78,62.78z" fill="none"></path><path d="M66.22,168.56c-34.67244,0 -62.78,-28.10756 -62.78,-62.78v-39.56c0,-34.67244 28.10756,-62.78 62.78,-62.78h39.56c34.67244,0 62.78,28.10756 62.78,62.78v39.56c0,34.67244 -28.10756,62.78 -62.78,62.78z" fill="none"></path><path d="M47.3,172c-26.12307,0 -47.3,-21.17693 -47.3,-47.3v-77.4c0,-26.12307 21.17693,-47.3 47.3,-47.3h77.4c26.12307,0 47.3,21.17693 47.3,47.3v77.4c0,26.12307 -21.17693,47.3 -47.3,47.3z" fill="none"></path><path d="M50.74,168.56c-26.12307,0 -47.3,-21.17693 -47.3,-47.3v-70.52c0,-26.12307 21.17693,-47.3 47.3,-47.3h70.52c26.12307,0 47.3,21.17693 47.3,47.3v70.52c0,26.12307 -21.17693,47.3 -47.3,47.3z" fill="none"></path><path d="M32.68,172c-18.04867,0 -32.68,-14.63133 -32.68,-32.68v-106.64c0,-18.04867 14.63133,-32.68 32.68,-32.68h106.64c18.04867,0 32.68,14.63133 32.68,32.68v106.64c0,18.04867 -14.63133,32.68 -32.68,32.68z" fill="none"></path><path d="M36.12,168.56c-18.04867,0 -32.68,-14.63133 -32.68,-32.68v-99.76c0,-18.04867 14.63133,-32.68 32.68,-32.68h99.76c18.04867,0 32.68,14.63133 32.68,32.68v99.76c0,18.04867 -14.63133,32.68 -32.68,32.68z" fill="none"></path><path d="M20.64,172c-11.39916,0 -20.64,-9.24084 -20.64,-20.64v-130.72c0,-11.39916 9.24084,-20.64 20.64,-20.64h130.72c11.39916,0 20.64,9.24084 20.64,20.64v130.72c0,11.39916 -9.24084,20.64 -20.64,20.64z" fill="none"></path><path d="M24.08,168.56c-11.39916,0 -20.64,-9.24084 -20.64,-20.64v-123.84c0,-11.39916 9.24084,-20.64 20.64,-20.64h123.84c11.39916,0 20.64,9.24084 20.64,20.64v123.84c0,11.39916 -9.24084,20.64 -20.64,20.64z" fill="none"></path><path d="M10.32,172c-5.69958,0 -10.32,-4.62042 -10.32,-10.32v-151.36c0,-5.69958 4.62042,-10.32 10.32,-10.32h151.36c5.69958,0 10.32,4.62042 10.32,10.32v151.36c0,5.69958 -4.62042,10.32 -10.32,10.32z" fill="none"></path><path d="M13.76,168.56c-5.69958,0 -10.32,-4.62042 -10.32,-10.32v-144.48c0,-5.69958 4.62042,-10.32 10.32,-10.32h144.48c5.69958,0 10.32,4.62042 10.32,10.32v144.48c0,5.69958 -4.62042,10.32 -10.32,10.32z" fill="none"></path><path d="M9.46,172c-5.22461,0 -9.46,-4.23539 -9.46,-9.46v-153.08c0,-5.22461 4.23539,-9.46 9.46,-9.46h153.08c5.22461,0 9.46,4.23539 9.46,9.46v153.08c0,5.22461 -4.23539,9.46 -9.46,9.46z" fill="none"></path><path d="M12.9,168.56c-5.22461,0 -9.46,-4.23539 -9.46,-9.46v-146.2c0,-5.22461 4.23539,-9.46 9.46,-9.46h146.2c5.22461,0 9.46,4.23539 9.46,9.46v146.2c0,5.22461 -4.23539,9.46 -9.46,9.46z" fill="none"></path><path d="M0,172v-172h172v172z" fill="none"></path><path d="M3.44,168.56v-165.12h165.12v165.12z" fill="none"></path><path d="" fill="none"></path><path d="" fill="none"></path></g></g></svg>