<svg xmlns="http://www.w3.org/2000/svg" x="0px" y="0px"
width="48" height="48"
viewBox="0 0 172 172"
style=" fill:#000000;"><g transform="translate(0.516,0.516) scale(0.994,0.994)"><g fill="none" fill-rule="nonzero" stroke="none" stroke-width="1" stroke-linecap="butt" stroke-linejoin="none" stroke-miterlimit="10" stroke-dasharray="" stroke-dashoffset="0" font-family="none" font-weight="none" font-size="none" text-anchor="none" style="mix-blend-mode: normal"><g fill="#ff0066" stroke="#ff0066" stroke-linejoin="round" opacity="true"><path d="M157.66667,86.71667c0,30.1 -18.63333,55.9 -45.15,66.65c-2.86667,0.71667 -5.01667,-1.43333 -5.01667,-3.58333v-18.63333c0,-6.45 -2.86667,-12.9 -7.16667,-16.48333c16.48333,-3.58333 28.66667,-12.9 28.66667,-28.66667c0,-8.6 -3.58333,-15.76667 -8.6,-21.5c0.71667,-1.43333 1.43333,-4.3 1.43333,-10.03333c0,-2.86667 0,-6.45 0,-9.31667c-0.71667,-1.43333 -1.43333,-2.15 -2.86667,-2.15h-0.71667c-3.58333,0.71667 -11.46667,2.86667 -17.91667,9.31667c-4.3,-1.43333 -9.31667,-2.15 -14.33333,-2.15c-5.01667,0 -10.03333,0.71667 -14.33333,2.15c-6.45,-6.45 -13.61667,-8.6 -17.2,-9.31667h-0.71667c-0.71667,0 -2.15,0.71667 -2.15,2.15c-1.43333,2.86667 -1.43333,6.45 -1.43333,9.31667c0,5.01667 0.71667,8.6 1.43333,10.03333c-5.01667,5.73333 -8.6,13.61667 -8.6,21.5c0,15.76667 12.18333,25.08333 28.66667,28.66667c-4.3,2.86667 -6.45,7.88333 -7.16667,12.9c-1.43333,0.71667 -3.58333,1.43333 -6.45,1.43333c-2.15,0 -6.45,-1.43333 -10.03333,-7.16667c-1.43333,-2.15 -5.01667,-7.16667 -9.31667,-7.16667c-0.71667,0 -2.86667,0 -2.86667,1.43333c0,0.71667 0.71667,0.71667 2.86667,1.43333c2.15,2.15 3.58333,4.3 4.3,7.16667c0.71667,5.01667 5.01667,13.61667 15.05,13.61667c3.58333,0 6.45,-0.71667 6.45,-0.71667v11.46667c0,2.86667 -2.15,4.3 -4.3,3.58333c-29.38333,-11.46667 -48.73333,-41.56667 -45.15,-75.25c3.58333,-32.25 30.1,-58.76667 63.06667,-62.35c43,-5.01667 79.55,28.66667 79.55,71.66667z"></path></g><path d="M0,172v-172h172v172z" fill="none" stroke="none" stroke-linejoin="miter"></path><g id="original-icon" fill="#ff0066" stroke="none" stroke-linejoin="miter"><path d="M78.11667,15.05c-32.96667,3.58333 -59.48333,30.1 -63.06667,62.35c-3.58333,33.68333 15.76667,63.78333 45.15,75.25c2.15,0.71667 4.3,-0.71667 4.3,-3.58333v-11.46667c0,0 -2.86667,0.71667 -6.45,0.71667c-10.03333,0 -14.33333,-8.6 -15.05,-13.61667c-0.71667,-2.86667 -2.15,-5.01667 -4.3,-7.16667c-2.15,-0.71667 -2.86667,-0.71667 -2.86667,-1.43333c0,-1.43333 2.15,-1.43333 2.86667,-1.43333c4.3,0 7.88333,5.01667 9.31667,7.16667c3.58333,5.73333 7.88333,7.16667 10.03333,7.16667c2.86667,0 5.01667,-0.71667 6.45,-1.43333c0.71667,-5.01667 2.86667,-10.03333 7.16667,-12.9c-16.48333,-3.58333 -28.66667,-12.9 -28.66667,-28.66667c0,-7.88333 3.58333,-15.76667 8.6,-21.5c-0.71667,-1.43333 -1.43333,-5.01667 -1.43333,-10.03333c0,-2.86667 0,-6.45 1.43333,-9.31667c0,-1.43333 1.43333,-2.15 2.15,-2.15h0.71667c3.58333,0.71667 10.75,2.86667 17.2,9.31667c4.3,-1.43333 9.31667,-2.15 14.33333,-2.15c5.01667,0 10.03333,0.71667 14.33333,2.15c6.45,-6.45 14.33333,-8.6 17.91667,-9.31667h0.71667c1.43333,0 2.15,0.71667 2.86667,2.15c0,2.86667 0,6.45 0,9.31667c0,5.73333 -0.71667,8.6 -1.43333,10.03333c5.01667,5.73333 8.6,12.9 8.6,21.5c0,15.76667 -12.18333,25.08333 -28.66667,28.66667c4.3,3.58333 7.16667,10.03333 7.16667,16.48333v18.63333c0,2.15 2.15,4.3 5.01667,3.58333c26.51667,-10.75 45.15,-36.55 45.15,-66.65c0,-43 -36.55,-76.68333 -79.55,-71.66667z"></path></g><path d="M0,172v-172h172v172z" fill="none" stroke="none" stroke-linejoin="miter"></path><path d="M3.44,168.56v-165.12h165.12v165.12z" fill="none" stroke="none" stroke-linejoin="miter"></path><path d="M1.72,170.28v-168.56h168.56v168.56z" fill="none" stroke="none" stroke-linejoin="miter"></path><path d="M5.16,166.84v-161.68h161.68v161.68z" fill="none" stroke="none" stroke-linejoin="miter"></path><path d="M12.9,159.1v-146.2h146.2v146.2z" fill="none" stroke="none" stroke-linejoin="miter"></path><path d="M16.34,155.66v-139.32h139.32v139.32z" fill="none" stroke="none" stroke-linejoin="miter"></path><path d="M19.78,152.22v-132.44h132.44v132.44z" fill="none" stroke="none" stroke-linejoin="miter"></path><path d="M23.22,148.78v-125.56h125.56v125.56z" fill="none" stroke="none" stroke-linejoin="miter"></path><path d="M25.8,146.2v-120.4h120.4v120.4z" fill="none" stroke="none" stroke-linejoin="miter"></path><path d="M29.24,142.76v-113.52h113.52v113.52z" fill="none" stroke="none" stroke-linejoin="miter"></path><path d="M38.7,133.3v-94.6h94.6v94.6z" fill="none" stroke="none" stroke-linejoin="miter"></path><path d="M42.14,129.86v-87.72h87.72v87.72z" fill="none" stroke="none" stroke-linejoin="miter"></path><path d="M72.24,99.76v-27.52h27.52v27.52z" fill="none" stroke="none" stroke-linejoin="miter"></path><path d="M75.68,96.32v-20.64h20.64v20.64z" fill="none" stroke="none" stroke-linejoin="miter"></path><path d="M64.5,107.5v-43h43v43z" fill="none" stroke="none" stroke-linejoin="miter"></path><path d="M67.94,104.06v-36.12h36.12v36.12z" fill="none" stroke="none" stroke-linejoin="miter"></path><path d="M49.88,122.12v-72.24h72.24v72.24z" fill="none" stroke="none" stroke-linejoin="miter"></path><path d="M53.32,118.68v-65.36h65.36v65.36z" fill="none" stroke="none" stroke-linejoin="miter"></path><path d="M31.82,140.18v-108.36h108.36v108.36z" fill="none" stroke="none" stroke-linejoin="miter"></path><path d="M35.26,136.74v-101.48h101.48v101.48z" fill="none" stroke="none" stroke-linejoin="miter"></path><path d="M24.94,147.06v-122.12h122.12v122.12z" fill="none" stroke="none" stroke-linejoin="miter"></path><path d="M28.38,143.62v-115.24h115.24v115.24z" fill="none" stroke="none" stroke-linejoin="miter"></path><path d="M17.2,154.8v-137.6h137.6v137.6z" fill="none" stroke="none" stroke-linejoin="miter"></path><path d="M20.64,151.36v-130.72h130.72v130.72z" fill="none" stroke="none" stroke-linejoin="miter"></path><path d="M12.04,159.96v-147.92h147.92v147.92z" fill="none" stroke="none" stroke-linejoin="miter"></path><path d="M15.48,156.52v-141.04h141.04v141.04z" fill="none" stroke="none" stroke-linejoin="miter"></path><path d="M6.88,165.12v-158.24h158.24v158.24z" fill="none" stroke="none" stroke-linejoin="miter"></path><path d="M10.32,161.68v-151.36h151.36v151.36z" fill="none" stroke="none" stroke-linejoin="miter"></path><path d="M2.58,169.42v-166.84h166.84v166.84z" fill="none" stroke="none" stroke-linejoin="miter"></path><path d="M6.02,165.98v-159.96h159.96v159.96z" fill="none" stroke="none" stroke-linejoin="miter"></path><path d="M0.86,171.14v-170.28h170.28v170.28z" fill="none" stroke="none" stroke-linejoin="miter"></path><path d="M4.3,167.7v-163.4h163.4v163.4z" fill="none" stroke="none" stroke-linejoin="miter"></path><path d="M0,172v-172h172v172z" fill="none" stroke="none" stroke-linejoin="miter"></path><path d="M3.44,168.56v-165.12h165.12v165.12z" fill="none" stroke="none" stroke-linejoin="miter"></path><path d="M-6.02,178.02v-184.04h184.04v184.04z" fill="none" stroke="none" stroke-linejoin="miter"></path><path d="M-2.58,174.58v-177.16h177.16v177.16z" fill="none" stroke="none" stroke-linejoin="miter"></path><path d="M-6.02,178.02v-184.04h184.04v184.04z" fill="none" stroke="none" stroke-linejoin="miter"></path><path d="M-2.58,174.58v-177.16h177.16v177.16z" fill="none" stroke="none" stroke-linejoin="miter"></path><path d="M-6.02,178.02v-184.04h184.04v184.04z" fill="none" stroke="none" stroke-linejoin="miter"></path><path d="M-2.58,174.58v-177.16h177.16v177.16z" fill="none" stroke="none" stroke-linejoin="miter"></path><path d="M-6.02,178.02v-184.04h184.04v184.04z" fill="none" stroke="none" stroke-linejoin="miter"></path><path d="M-2.58,174.58v-177.16h177.16v177.16z" fill="none" stroke="none" stroke-linejoin="miter"></path><path d="M-6.02,178.02v-184.04h184.04v184.04z" fill="none" stroke="none" stroke-linejoin="miter"></path><path d="M-2.58,174.58v-177.16h177.16v177.16z" fill="none" stroke="none" stroke-linejoin="miter"></path><path d="M-6.02,178.02v-184.04h184.04v184.04z" fill="none" stroke="none" stroke-linejoin="miter"></path><path d="M-2.58,174.58v-177.16h177.16v177.16z" fill="none" stroke="none" stroke-linejoin="miter"></path><path d="M-6.02,178.02v-184.04h184.04v184.04z" fill="none" stroke="none" stroke-linejoin="miter"></path><path d="M-2.58,174.58v-177.16h177.16v177.16z" fill="none" stroke="none" stroke-linejoin="miter"></path><path d="M-6.02,178.02v-184.04h184.04v184.04z" fill="none" stroke="none" stroke-linejoin="miter"></path><path d="M-2.58,174.58v-177.16h177.16v177.16z" fill="none" stroke="none" stroke-linejoin="miter"></path><path d="M-6.02,178.02v-184.04h184.04v184.04z" fill="none" stroke="none" stroke-linejoin="miter"></path><path d="M-2.58,174.58v-177.16h177.16v177.16z" fill="none" stroke="none" stroke-linejoin="miter"></path><path d="M-6.02,178.02v-184.04h184.04v184.04z" fill="none" stroke="none" stroke-linejoin="miter"></path><path d="M-2.58,174.58v-177.16h177.16v177.16z" fill="none" stroke="none" stroke-linejoin="miter"></path><path d="M-6.02,178.02v-184.04h184.04v184.04z" fill="none" stroke="none" stroke-linejoin="miter"></path><path d="M-2.58,174.58v-177.16h177.16v177.16z" fill="none" stroke="none" stroke-linejoin="miter"></path><path d="M-6.02,178.02v-184.04h184.04v184.04z" fill="none" stroke="none" stroke-linejoin="miter"></path><path d="M-2.58,174.58v-177.16h177.16v177.16z" fill="none" stroke="none" stroke-linejoin="miter"></path><path d="M-6.02,178.02v-184.04h184.04v184.04z" fill="none" stroke="none" stroke-linejoin="miter"></path><path d="M-2.58,174.58v-177.16h177.16v177.16z" fill="none" stroke="none" stroke-linejoin="miter"></path><path d="M0,172v-172h172v172z" fill="none" stroke="none" stroke-linejoin="miter"></path><path d="M3.44,168.56v-165.12h165.12v165.12z" fill="none" stroke="none" stroke-linejoin="miter"></path><path d="M1.72,170.28v-168.56h168.56v168.56z" fill="none" stroke="none" stroke-linejoin="miter"></path><path d="M5.16,166.84v-161.68h161.68v161.68z" fill="none" stroke="none" stroke-linejoin="miter"></path><path d="M35.26,136.74v-101.48h101.48v101.48z" fill="none" stroke="none" stroke-linejoin="miter"></path><path d="M38.7,133.3v-94.6h94.6v94.6z" fill="none" stroke="none" stroke-linejoin="miter"></path><path d="M73.1,98.9v-25.8h25.8v25.8z" fill="none" stroke="none" stroke-linejoin="miter"></path><path d="M76.54,95.46v-18.92h18.92v18.92z" fill="none" stroke="none" stroke-linejoin="miter"></path><path d="M80.84,91.16v-10.32h10.32v10.32z" fill="none" stroke="none" stroke-linejoin="miter"></path><path d="M84.28,87.72v-3.44h3.44v3.44z" fill="none" stroke="none" stroke-linejoin="miter"></path><path d="M37.84,134.16v-96.32h96.32v96.32z" fill="none" stroke="none" stroke-linejoin="miter"></path><path d="M41.28,130.72v-89.44h89.44v89.44z" fill="none" stroke="none" stroke-linejoin="miter"></path><path d="M26.66,145.34v-118.68h118.68v118.68z" fill="none" stroke="none" stroke-linejoin="miter"></path><path d="M30.1,141.9v-111.8h111.8v111.8z" fill="none" stroke="none" stroke-linejoin="miter"></path><path d="M12.04,159.96v-147.92h147.92v147.92z" fill="none" stroke="none" stroke-linejoin="miter"></path><path d="M15.48,156.52v-141.04h141.04v141.04z" fill="none" stroke="none" stroke-linejoin="miter"></path><path d="M0.86,171.14v-170.28h170.28v170.28z" fill="none" stroke="none" stroke-linejoin="miter"></path><path d="M4.3,167.7v-163.4h163.4v163.4z" fill="none" stroke="none" stroke-linejoin="miter"></path><path d="M0,172v-172h172v172z" fill="none" stroke="none" stroke-linejoin="miter"></path><path d="M3.44,168.56v-165.12h165.12v165.12z" fill="none" stroke="none" stroke-linejoin="miter"></path><path d="M4.3,167.7v-163.4h163.4v163.4z" fill="none" stroke="none" stroke-linejoin="miter"></path><path d="M7.74,164.26v-156.52h156.52v156.52z" fill="none" stroke="none" stroke-linejoin="miter"></path><path d="M24.08,147.92v-123.84h123.84v123.84z" fill="none" stroke="none" stroke-linejoin="miter"></path><path d="M27.52,144.48v-116.96h116.96v116.96z" fill="none" stroke="none" stroke-linejoin="miter"></path><path d="M50.74,121.26v-70.52h70.52v70.52z" fill="none" stroke="none" stroke-linejoin="miter"></path><path d="M54.18,117.82v-63.64h63.64v63.64z" fill="none" stroke="none" stroke-linejoin="miter"></path><path d="M70.52,101.48v-30.96h30.96v30.96z" fill="none" stroke="none" stroke-linejoin="miter"></path><path d="M73.96,98.04v-24.08h24.08v24.08z" fill="none" stroke="none" stroke-linejoin="miter"></path><path d="M86,172c-47.49649,0 -86,-38.50351 -86,-86v0c0,-47.49649 38.50351,-86 86,-86v0c47.49649,0 86,38.50351 86,86v0c0,47.49649 -38.50351,86 -86,86z" fill="none" stroke="none" stroke-linejoin="miter"></path><path d="M86,168.56c-45.59663,0 -82.56,-36.96337 -82.56,-82.56v0c0,-45.59663 36.96337,-82.56 82.56,-82.56v0c45.59663,0 82.56,36.96337 82.56,82.56v0c0,45.59663 -36.96337,82.56 -82.56,82.56z" fill="none" stroke="none" stroke-linejoin="miter"></path><path d="M86,172c-47.49649,0 -86,-38.50351 -86,-86v0c0,-47.49649 38.50351,-86 86,-86v0c47.49649,0 86,38.50351 86,86v0c0,47.49649 -38.50351,86 -86,86z" fill="none" stroke="none" stroke-linejoin="miter"></path><path d="M86,168.56c-45.59663,0 -82.56,-36.96337 -82.56,-82.56v0c0,-45.59663 36.96337,-82.56 82.56,-82.56v0c45.59663,0 82.56,36.96337 82.56,82.56v0c0,45.59663 -36.96337,82.56 -82.56,82.56z" fill="none" stroke="none" stroke-linejoin="miter"></path><path d="M86,165.12c-43.69677,0 -79.12,-35.42323 -79.12,-79.12v0c0,-43.69677 35.42323,-79.12 79.12,-79.12v0c43.69677,0 79.12,35.42323 79.12,79.12v0c0,43.69677 -35.42323,79.12 -79.12,79.12z" fill="none" stroke="none" stroke-linejoin="miter"></path><path d="M86,161.68c-41.79691,0 -75.68,-33.88309 -75.68,-75.68v0c0,-41.79691 33.88309,-75.68 75.68,-75.68v0c41.79691,0 75.68,33.88309 75.68,75.68v0c0,41.79691 -33.88309,75.68 -75.68,75.68z" fill="none" stroke="none" stroke-linejoin="miter"></path><path d="M86,138.46c-28.97286,0 -52.46,-23.48714 -52.46,-52.46v0c0,-28.97286 23.48714,-52.46 52.46,-52.46v0c28.97286,0 52.46,23.48714 52.46,52.46v0c0,28.97286 -23.48714,52.46 -52.46,52.46z" fill="none" stroke="none" stroke-linejoin="miter"></path><path d="M86,135.02c-27.073,0 -49.02,-21.947 -49.02,-49.02v0c0,-27.073 21.947,-49.02 49.02,-49.02v0c27.073,0 49.02,21.947 49.02,49.02v0c0,27.073 -21.947,49.02 -49.02,49.02z" fill="none" stroke="none" stroke-linejoin="miter"></path><path d="M86,110.08c-13.29902,0 -24.08,-10.78098 -24.08,-24.08v0c0,-13.29902 10.78098,-24.08 24.08,-24.08v0c13.29902,0 24.08,10.78098 24.08,24.08v0c0,13.29902 -10.78098,24.08 -24.08,24.08z" fill="none" stroke="none" stroke-linejoin="miter"></path><path d="M86,106.64c-11.39916,0 -20.64,-9.24084 -20.64,-20.64v0c0,-11.39916 9.24084,-20.64 20.64,-20.64h0c11.39916,0 20.64,9.24084 20.64,20.64v0c0,11.39916 -9.24084,20.64 -20.64,20.64z" fill="none" stroke="none" stroke-linejoin="miter"></path><path d="" fill="none" stroke="none" stroke-linejoin="miter"></path><path d="" fill="none" stroke="none" stroke-linejoin="miter"></path></g></g></svg>