<svg xmlns="http://www.w3.org/2000/svg" x="0px" y="0px"
width="48" height="48"
viewBox="0 0 172 172"
style=" fill:#000000;"><g fill="none" fill-rule="nonzero" stroke="none" stroke-width="1" stroke-linecap="butt" stroke-linejoin="miter" stroke-miterlimit="10" stroke-dasharray="" stroke-dashoffset="0" font-family="none" font-weight="none" font-size="none" text-anchor="none" style="mix-blend-mode: normal"><path d="M0,172v-172h172v172z" fill="none"></path><path d="M85.14,86.86v-1.72h1.72v1.72z" fill="#cccccc"></path><g fill="#cccccc"><path d="M86,42.66406c5.68854,-12.76562 15.69948,-25.12812 29.96563,-25.12812c8.33125,0 16.01302,4.03125 23.04531,12.09375c6.69636,7.65937 10.05573,15.34114 10.05573,23.06771c0,11.57865 -3.20261,23.6724 -9.56302,36.32604c-5.48698,10.90677 -13.39271,22.41823 -23.71718,34.53437c-7.79375,9.1599 -17.82708,19.57396 -30.1224,31.24219c-10.63802,-10.14531 -20.17864,-20.22344 -28.64427,-30.25677c-10.32448,-12.3401 -18.34219,-23.85156 -24.03073,-34.53437c-6.69635,-12.65364 -10.05573,-23.98594 -10.05573,-34.01927c0,-9.60781 2.95625,-18.275 8.89114,-26.02396c6.4724,-8.51042 14.37813,-12.76563 23.71719,-12.76563c14.71406,0 24.85938,12.47448 30.45833,25.46406z"></path></g><path d="M86,172c-47.49649,0 -86,-38.50351 -86,-86v0c0,-47.49649 38.50351,-86 86,-86v0c47.49649,0 86,38.50351 86,86v0c0,47.49649 -38.50351,86 -86,86z" fill="none"></path><path d="M86,168.56c-45.59663,0 -82.56,-36.96337 -82.56,-82.56v0c0,-45.59663 36.96337,-82.56 82.56,-82.56v0c45.59663,0 82.56,36.96337 82.56,82.56v0c0,45.59663 -36.96337,82.56 -82.56,82.56z" fill="none"></path><path d="M86,170.28c-46.54656,0 -84.28,-37.73344 -84.28,-84.28v0c0,-46.54656 37.73344,-84.28 84.28,-84.28v0c46.54656,0 84.28,37.73344 84.28,84.28v0c0,46.54656 -37.73344,84.28 -84.28,84.28z" fill="none"></path><path d="M86,166.84c-44.6467,0 -80.84,-36.1933 -80.84,-80.84v0c0,-44.6467 36.1933,-80.84 80.84,-80.84v0c44.6467,0 80.84,36.1933 80.84,80.84v0c0,44.6467 -36.1933,80.84 -80.84,80.84z" fill="none"></path><path d="M86,120.4c-18.9986,0 -34.4,-15.4014 -34.4,-34.4v0c0,-18.9986 15.4014,-34.4 34.4,-34.4v0c18.9986,0 34.4,15.4014 34.4,34.4v0c0,18.9986 -15.4014,34.4 -34.4,34.4z" fill="none"></path><path d="M86,116.96c-17.09874,0 -30.96,-13.86126 -30.96,-30.96v0c0,-17.09874 13.86126,-30.96 30.96,-30.96h0c17.09874,0 30.96,13.86126 30.96,30.96v0c0,17.09874 -13.86126,30.96 -30.96,30.96z" fill="none"></path><path d="M86,100.62c-8.0744,0 -14.62,-6.5456 -14.62,-14.62v0c0,-8.0744 6.5456,-14.62 14.62,-14.62h0c8.0744,0 14.62,6.5456 14.62,14.62v0c0,8.0744 -6.5456,14.62 -14.62,14.62z" fill="none"></path><path d="M86,97.18c-6.17454,0 -11.18,-5.00546 -11.18,-11.18v0c0,-6.17454 5.00546,-11.18 11.18,-11.18v0c6.17454,0 11.18,5.00546 11.18,11.18v0c0,6.17454 -5.00546,11.18 -11.18,11.18z" fill="none"></path><path d="M0,172v-172h172v172z" fill="none"></path><path d="M3.44,168.56v-165.12h165.12v165.12z" fill="none"></path><path d="M0.86,171.14v-170.28h170.28v170.28z" fill="none"></path><path d="M4.3,167.7v-163.4h163.4v163.4z" fill="none"></path></g></svg>