<svg xmlns="http://www.w3.org/2000/svg" x="0px" y="0px"
width="48" height="48"
viewBox="0 0 172 172"
style=" fill:#000000;"><g transform=""><g fill="none" fill-rule="nonzero" stroke="none" stroke-width="1" stroke-linecap="butt" stroke-linejoin="miter" stroke-miterlimit="10" stroke-dasharray="" stroke-dashoffset="0" font-family="none" font-weight="none" font-size="none" text-anchor="none" style="mix-blend-mode: normal"><path d="M0,172v-172h172v172z" fill="none"></path><g fill="#ff0066"><path d="M150.5,44.53725c-4.74075,2.09983 -9.83983,3.50092 -15.21842,4.16383c5.46817,-3.2465 9.675,-8.42442 11.64942,-14.54117c-5.117,2.99925 -10.78583,5.203 -16.81658,6.364c-4.816,-5.10625 -11.68525,-8.27392 -19.29625,-8.27392c-14.62,0 -26.47008,11.74617 -26.47008,26.23c0,2.04967 0.24008,4.04558 0.69158,5.98417c-21.9945,-1.10367 -41.50217,-11.55983 -54.55267,-27.42683c-2.29333,3.87717 -3.58333,8.41725 -3.58333,13.20817c0,9.10525 4.66192,17.12117 11.77125,21.844c-4.33942,-0.13258 -8.42442,-1.34017 -12.00058,-3.27517c0,0.07883 0,0.19708 0,0.30817c0,12.72442 9.12675,23.32033 21.22408,25.73192c-2.21092,0.60558 -4.54725,0.94242 -6.95525,0.94242c-1.70925,0 -3.3755,-0.1935 -4.988,-0.48375c3.36833,10.39883 13.14008,17.99908 24.71783,18.22483c-9.05867,7.02333 -20.468,11.23017 -32.8735,11.23017c-2.14283,0 -4.23908,-0.12183 -6.31025,-0.37267c11.72108,7.42108 25.63875,11.77125 40.57767,11.77125c48.67958,0 75.31092,-39.97567 75.31092,-74.65517c0,-1.13592 -0.03583,-2.26825 -0.08958,-3.38625c5.19583,-3.66933 9.675,-8.299 13.21175,-13.588"></path></g><path d="M0,172v-172h172v172z" fill="none"></path><path d="M3.44,168.56v-165.12h165.12v165.12z" fill="none"></path><path d="M1.72,170.28v-168.56h168.56v168.56z" fill="none"></path><path d="M5.16,166.84v-161.68h161.68v161.68z" fill="none"></path><path d="M28.38,143.62v-115.24h115.24v115.24z" fill="none"></path><path d="M31.82,140.18v-108.36h108.36v108.36z" fill="none"></path><path d="M49.88,122.12v-72.24h72.24v72.24z" fill="none"></path><path d="M53.32,118.68v-65.36h65.36v65.36z" fill="none"></path><path d="M79.98,92.02v-12.04h12.04v12.04z" fill="none"></path><path d="M83.42,88.58v-5.16h5.16v5.16z" fill="none"></path><path d="" fill="none"></path><path d="M86,172c-47.49649,0 -86,-38.50351 -86,-86v0c0,-47.49649 38.50351,-86 86,-86v0c47.49649,0 86,38.50351 86,86v0c0,47.49649 -38.50351,86 -86,86z" fill="none"></path><path d="M86,168.56c-45.59663,0 -82.56,-36.96337 -82.56,-82.56v0c0,-45.59663 36.96337,-82.56 82.56,-82.56v0c45.59663,0 82.56,36.96337 82.56,82.56v0c0,45.59663 -36.96337,82.56 -82.56,82.56z" fill="none"></path><path d="M86,152.22c-36.5723,0 -66.22,-29.6477 -66.22,-66.22v0c0,-36.5723 29.6477,-66.22 66.22,-66.22v0c36.5723,0 66.22,29.6477 66.22,66.22v0c0,36.5723 -29.6477,66.22 -66.22,66.22z" fill="none"></path><path d="M86,148.78c-34.67244,0 -62.78,-28.10756 -62.78,-62.78v0c0,-34.67244 28.10756,-62.78 62.78,-62.78v0c34.67244,0 62.78,28.10756 62.78,62.78v0c0,34.67244 -28.10756,62.78 -62.78,62.78z" fill="none"></path><path d="M86,121.26c-19.47356,0 -35.26,-15.78644 -35.26,-35.26v0c0,-19.47356 15.78644,-35.26 35.26,-35.26v0c19.47356,0 35.26,15.78644 35.26,35.26v0c0,19.47356 -15.78644,35.26 -35.26,35.26z" fill="none"></path><path d="M86,117.82c-17.5737,0 -31.82,-14.2463 -31.82,-31.82v0c0,-17.5737 14.2463,-31.82 31.82,-31.82v0c17.5737,0 31.82,14.2463 31.82,31.82v0c0,17.5737 -14.2463,31.82 -31.82,31.82z" fill="none"></path><path d="M86,98.04c-6.64951,0 -12.04,-5.39049 -12.04,-12.04v0c0,-6.64951 5.39049,-12.04 12.04,-12.04v0c6.64951,0 12.04,5.39049 12.04,12.04v0c0,6.64951 -5.39049,12.04 -12.04,12.04z" fill="none"></path><path d="M86,94.6c-4.74965,0 -8.6,-3.85035 -8.6,-8.6v0c0,-4.74965 3.85035,-8.6 8.6,-8.6h0c4.74965,0 8.6,3.85035 8.6,8.6v0c0,4.74965 -3.85035,8.6 -8.6,8.6z" fill="none"></path><path d="" fill="none"></path><path d="" fill="none"></path></g></g></svg>